<svg width="141" height="51" fill="none" xmlns="http://www.w3.org/2000/svg"><path d="M79.546 16.678h1.856v2h-1.856V22h-2.491v-3.322h-6.45l-.072-1.518 6.44-10.09h2.573v9.608zm-6.398 0h3.907v-6.234l-.185.328-3.722 5.906zm19.636-.964c0 2.147-.403 3.767-1.21 4.86-.8 1.088-2.02 1.631-3.66 1.631-1.614 0-2.83-.53-3.65-1.59-.814-1.066-1.231-2.641-1.252-4.726v-2.584c0-2.147.4-3.757 1.2-4.83.807-1.073 2.034-1.61 3.681-1.61 1.634 0 2.85.523 3.65 1.57.807 1.045 1.22 2.61 1.241 4.695v2.584zm-2.492-2.789c0-1.401-.19-2.427-.574-3.076-.383-.656-.99-.984-1.825-.984-.813 0-1.412.31-1.794.933-.383.615-.585 1.579-.605 2.892v3.383c0 1.395.195 2.434.584 3.117.39.684 1.002 1.026 1.836 1.026.8 0 1.39-.315 1.773-.944.383-.635.585-1.627.606-2.973v-3.374zm10.613.862h3.897v2.276h-3.897v4.44h-2.42v-4.44h-3.917v-2.276h3.917V9.634h2.42v4.153zM78.008 47h-1.445v-7.258h-3.891V47h-1.453v-8.453h6.789V47zm9.46-4.133c0 1.287-.294 2.323-.882 3.11-.589.786-1.385 1.18-2.39 1.18-1.027 0-1.834-.326-2.423-.977v4.07h-1.445V38.547h1.32l.07.937c.59-.729 1.407-1.093 2.454-1.093 1.016 0 1.818.382 2.406 1.148.594.766.89 1.83.89 3.195v.133zm-1.445-.164c0-.953-.203-1.706-.609-2.258-.406-.552-.963-.828-1.672-.828-.875 0-1.531.388-1.969 1.164v4.04c.433.77 1.094 1.156 1.985 1.156.693 0 1.242-.274 1.648-.82.412-.553.617-1.37.617-2.454zm2.907-.008c0-.828.161-1.573.484-2.234.328-.661.781-1.172 1.36-1.531.583-.36 1.247-.54 1.992-.54 1.15 0 2.08.4 2.789 1.196.713.797 1.07 1.857 1.07 3.18v.101c0 .823-.159 1.563-.477 2.219a3.56 3.56 0 01-1.351 1.523c-.584.365-1.255.547-2.016.547-1.146 0-2.075-.398-2.789-1.195-.708-.797-1.062-1.852-1.062-3.164v-.102zm1.453.172c0 .938.216 1.69.648 2.258.438.568 1.021.852 1.75.852.735 0 1.318-.287 1.75-.86.432-.578.649-1.385.649-2.422 0-.927-.222-1.677-.664-2.25-.438-.578-1.021-.867-1.75-.867-.714 0-1.29.284-1.727.852-.437.567-.656 1.38-.656 2.437zm11.562 4.29c-1.146 0-2.078-.376-2.797-1.126-.718-.755-1.078-1.763-1.078-3.023v-.266c0-.838.16-1.586.477-2.242.323-.661.77-1.177 1.344-1.547a3.382 3.382 0 011.875-.562c1.099 0 1.953.362 2.562 1.086.61.724.914 1.76.914 3.109v.602h-5.726c.02.833.263 1.507.726 2.023.469.51 1.063.766 1.781.766.511 0 .943-.105 1.297-.313.354-.208.664-.484.93-.828l.883.687c-.709 1.089-1.771 1.633-3.188 1.633zm-.179-7.579c-.584 0-1.073.214-1.469.64-.396.423-.64 1.016-.734 1.782h4.234v-.11c-.042-.734-.24-1.301-.594-1.703-.354-.406-.833-.609-1.437-.609zm7.789 3.82H108.5V47h-1.453v-8.453h1.453v3.578h.945l2.844-3.578h1.75l-3.344 4.062L114.32 47h-1.836l-2.929-3.602zm12.289-3.68h-2.836V47h-1.446v-7.281h-2.781v-1.172h7.063v1.172zm.695 2.977c0-.828.162-1.573.484-2.234.329-.661.782-1.172 1.36-1.531.583-.36 1.247-.54 1.992-.54 1.151 0 2.081.4 2.789 1.196.714.797 1.07 1.857 1.07 3.18v.101c0 .823-.158 1.563-.476 2.219a3.561 3.561 0 01-1.352 1.523c-.583.365-1.255.547-2.015.547-1.146 0-2.076-.398-2.789-1.195-.709-.797-1.063-1.852-1.063-3.164v-.102zm1.453.172c0 .938.216 1.69.649 2.258.437.568 1.02.852 1.75.852.734 0 1.317-.287 1.75-.86.432-.578.648-1.385.648-2.422 0-.927-.221-1.677-.664-2.25-.437-.578-1.021-.867-1.75-.867-.714 0-1.289.284-1.727.852-.437.567-.656 1.38-.656 2.437zM132.18 47v-8.453h3.297c1.125 0 1.987.198 2.585.594.605.39.907.966.907 1.726 0 .39-.117.745-.352 1.063-.234.312-.581.552-1.039.718.511.12.919.355 1.227.704.312.349.468.765.468 1.25 0 .776-.286 1.37-.859 1.78-.568.412-1.372.618-2.414.618h-3.82zm1.445-3.71v2.546h2.391c.604 0 1.054-.112 1.351-.336.302-.224.453-.54.453-.945 0-.844-.619-1.266-1.859-1.266h-2.336zm0-1.157h1.867c1.354 0 2.031-.396 2.031-1.188 0-.791-.64-1.2-1.921-1.226h-1.977v2.414zM49.166 0h-37.5a.833.833 0 00-.833.833v12.5H12.5V1.667h35.833V47.5a.82.82 0 01-.767.833c-.072 0-.144-.006-.215-.007a5.81 5.81 0 01-.44-.023c-.013 0-.024 0-.037-.005a5.842 5.842 0 01-5.172-5.166c0-.012-.004-.025-.005-.036a5.812 5.812 0 01-.03-.596v-1.667a.833.833 0 00-.834-.833H12.5V25h-1.667v15H4.167a.833.833 0 00-.834.833V42.5a7.508 7.508 0 007.5 7.5h36.75A2.482 2.482 0 0050 47.5V.833A.833.833 0 0049.166 0zM10.834 48.333A5.84 5.84 0 015 42.5v-.833h35v.833c.001.275.017.55.047.822.008.073.022.143.032.215.028.201.06.402.105.6.015.069.034.137.052.206a7.63 7.63 0 00.235.76c.076.207.161.409.256.608.02.04.038.083.058.12.104.212.22.417.344.616.017.027.032.055.048.084.136.213.283.418.44.616l.026.036a7.332 7.332 0 001.142 1.153l-31.952-.003z" fill="#fff"/><path d="M27.5 23.333a.833.833 0 00.59-.244l3.332-3.333a.833.833 0 000-1.178l-3.333-3.334A.833.833 0 0027.5 15H4.168a4.167 4.167 0 000 8.333H27.5zm-.215-6.536l2.37 2.37-2.37 2.37-.593-2.37.593-2.37zm-20.618-.13H25.6l-.417 1.666H8.333V20h16.85l.417 1.667H6.667v-5zm-5 2.5a2.5 2.5 0 012.5-2.5H5v5h-.833a2.5 2.5 0 01-2.5-2.5zm17.5 16.666h25c.46 0 .833-.373.833-.833V10a.833.833 0 00-1.423-.59l-25 25a.833.833 0 00.59 1.423zm24.166-23.821v2.155h-1.666v1.666h1.666V17.5h-1.666v1.667h1.666v1.666h-1.666V22.5h1.666v1.667h-1.666v1.666h1.666V27.5h-1.666v1.667h1.666v1.666h-1.666V32.5h1.666v1.667h-1.666V32.5H40v1.667h-1.667V32.5h-1.666v1.667H35V32.5h-1.667v1.667h-1.666V32.5H30v1.667h-1.667V32.5h-1.666v1.667H25V32.5h-1.667v1.667h-2.155l22.155-22.155z" fill="#fff"/><path d="M31.238 30.833h7.929c.46 0 .833-.373.833-.833v-7.93a.833.833 0 00-1.422-.588l-7.93 7.929a.833.833 0 00.59 1.422zm7.095-6.75v5.084H33.25l5.083-5.084zm0-19.083H21.667v1.667h16.666V5zm2.5 3.333H19.167V10h21.666V8.333zm-21.666 17.5h-5V27.5h5v-1.667zM17.5 29.167h-3.333v1.666H17.5v-1.666z" fill="#fff"/></svg>